<?xml version="1.0" encoding="utf-8"?>
<!-- Generator: Adobe Illustrator 25.2.1, SVG Export Plug-In . SVG Version: 6.00 Build 0)  -->
<svg version="1.1" id="Calque_1" xmlns="http://www.w3.org/2000/svg" xmlns:xlink="http://www.w3.org/1999/xlink" x="0px" y="0px"
	 viewBox="0 0 134.4 158.4" style="enable-background:new 0 0 134.4 158.4;" xml:space="preserve">
<style type="text/css">
	.st0{fill:none;stroke:#76777E;stroke-miterlimit:10;}
	.st1{fill:url(#SVGID_1_);}
	.st2{fill:url(#SVGID_2_);}
</style>
<g>
	<path class="st0" d="M111.6,117.4c0,0,21.8,14.1,22.8,16c1,1.9,12.5,9.8,13.5,10.4"/>
	<linearGradient id="SVGID_1_" gradientUnits="userSpaceOnUse" x1="97.2731" y1="143.1133" x2="119.4116" y2="176.8419">
		<stop  offset="0" style="stop-color:#EF3F7C"/>
		<stop  offset="1" style="stop-color:#FF009B"/>
	</linearGradient>
	<path class="st1" d="M118.3,128.2c-4.3-8.6-14.3-23.8-14.3-23.8l-0.6-2.1h0c0,2.6-0.4,6.3-2.5,7.4c-1.7,1-4.1,3.1-8.9,3.6
		c0,0,0,0.1,0,0.1c2.7,5-2.1,9.6-5.7,19.5s5.2,27.9,11.2,35.8c6,8,6.5,10.5,9.7,18.9c3.2,8.4-6,11.8-6,11.8c2.9,1,9.3-6.2,10.9-7.7
		c1.6-1.5,5-9.7,5-9.7s1.8,0.1,4.6,4.4c2.8,4.3,0.3,7.8,0.3,7.8c3.5-0.7,0.1-14.3-3.7-21.7c-3.9-7.4,1.4-10.2,5.9-15.9
		C128.8,150.9,122.6,136.8,118.3,128.2z M119.7,146.8C119.7,146.8,119.7,146.8,119.7,146.8c0.3-0.5,0.5-1.1,0.6-1.6
		c0.1-0.3,0.1-0.5,0.1-0.8c0.1-1,0-1.9-0.1-2.9c0,0.3,0.2,0.7,0.2,1c0.1,0.4,0.2,0.7,0.2,1.1c0.1,0.7,0.3,1.4,0.3,2.1
		c0.1,0.6,0.2,1.2,0.1,1.8c-0.1,0.6-0.4,1-1,1.2c-0.8,0.3-1.7,0.3-2.5,0.2c0.1,0,0.2-0.2,0.3-0.2c0.3-0.2,0.5-0.5,0.8-0.7
		C119,147.6,119.4,147.2,119.7,146.8z M101.8,116.6l1.4,1.3c4.9,3.3,4.6,10.6,4.8,13.4c0.2,2.8-0.6,7.5-0.6,7.5
		c0.4-3-0.8-9.8-1.9-12c-1-2.2-1.8-4.8-3.8-7.9V116.6z M112.6,185.6c-0.3,1.2-0.5,2.4-0.2,3.6c-0.3-1.8,0-3.6,0.2-5.4
		c0.1-1,0.2-2,0.1-3c-0.1-1-0.5-1.9-0.9-2.9c-0.7-1.7-1.5-3.4-2.8-4.8c0,0,0,0-0.1-0.1c-0.7-0.7-1.5-1.4-2.3-2c-2.5-2-5.1-4-7.6-6.1
		c-3.9-3.1-8.9-9-6.8-14.5c0.3-0.8,0.8-1.4,1.1-2.2c0.3-0.7,0.6-1.5,0.9-2.2c0.4-1.4,0.7-2.9,0.8-4.4c0.2-1.7,0.2-3.5,0-5.2
		c0,0,0-0.1,0-0.1c0.2,5.1,0.8,10.3,2,15.2c0.4,1.6,0.8,3.4,1.5,4.9c1.6,3.5,3.6,6.8,5.7,9.9c1.1,1.6,2.3,3.2,3.6,4.8
		c0.5,0.7,1.1,1.4,1.6,2.1c0,0,0,0-0.1-0.1c0.7,1,1.3,2.1,2,3.1c0.4,0.5,0.8,1,1.1,1.5c0.7,1.2,1,2.6,0.9,4
		C113.3,183.1,112.9,184.3,112.6,185.6C112.6,185.5,112.6,185.6,112.6,185.6z M114.2,146.6c0.9-1.3,2.6-1,2.6-1
		c-0.7,2.1-1.6,2.9-2.1,3.8S113.4,147.9,114.2,146.6z M116,154.6c-0.1,0.2-0.2,0.4-0.3,0.6c0.6-1.1,1.1-2.2,1.7-3.3
		c0.2-0.4,0.4-0.9,0.6-1.3c0.2-0.3,0.4-0.5,0.7-0.6c0.2-0.1,0.5,0,0.7,0.1c0,0,0.3,0.1,0.3,0.1C119.7,150.2,117.2,152.4,116,154.6z
		 M120.3,158.6c-0.1,0.2-0.1,0.4-0.2,0.6c-0.2,0.5-0.4,0.9-0.6,1.3c-0.3,0.5-0.6,1.1-0.9,1.6c-0.2-0.4-0.4-0.9-0.6-1.3
		c-0.1-0.4-0.2-0.7-0.2-1.1c0-0.5,0.2-0.9,0.4-1.3c0.4-0.9,0.9-1.8,1.4-2.7c0.4-0.7,0.7-1.3,1.1-2c0-0.1,0.1-0.1,0.1-0.2
		c0-0.1,0.4,0,0.5,0c0.1,0,0.2,0.1,0.3,0.2c0.2,0.2,0.2,0.5,0.1,0.8c-0.1,0.9-0.5,1.8-0.8,2.6c0,0.1-0.1,0.3-0.1,0.4
		c-0.1,0.1-0.1,0.3-0.2,0.4C120.5,158.1,120.4,158.4,120.3,158.6z"/>
	<path class="st0" d="M97.7,26.6c0,0,5.7,8.8,5.7,10.2c0.1,1.3,3.7,9.4,4.3,10.8c0.4,0.9,0.7,4.1-0.7,7.8c-1.2,3.2-2,6.9-2,8.2
		s-0.5,2.5-0.5,2.5s4.7,7,5.2,8.5c0.5,1.5,1.2,5.3-0.9,6.1c-2,0.8-1.9,2.4-2.1,3.8c-0.1,1.4-0.1,4.7-0.6,5.3
		c-0.4,0.6-1.4,1.5-1.2,2.1c0.2,0.6,1,4,0.3,5.5c-0.8,1.5-2,0.8-1.9,2.5c0,1.6,0.5,8.1-2.5,9.8c-3,1.6-7.7,6.8-23.3,1.2
		S62.3,104,62.3,104"/>
	<path class="st0" d="M52.5,91.3c-0.4-1.8-1.7-5.3-1.7-5.3s-1.8,2.1-4.3,2.2c-0.5,0-0.9-0.1-1.4-0.2"/>
	<path class="st0" d="M88.7,114.8c0,0-9.9,34.4-14.3,37.3s-30.8-13.8-39.8-33.8"/>
	<path class="st0" d="M-26.2,158.8c0,0,8.9-6.4,15.3-12.7"/>
	<g>
		<linearGradient id="SVGID_2_" gradientUnits="userSpaceOnUse" x1="22.4665" y1="46.3764" x2="78.65" y2="140.9012">
			<stop  offset="0" style="stop-color:#EF3F7C"/>
			<stop  offset="1" style="stop-color:#FF009B"/>
		</linearGradient>
		<path class="st2" d="M98.4,16.5c-0.2-2.9-5.8-6.2-7.2-6.7c-1.5-0.5-2.7-1.9-4-2.7c-4.1-2.6-8.5-3-13.1-4
			c-3.6-0.8-8.4-1.9-11.4,0.9C62.1,4.6,58.2,4,57.3,4c-6.5,0.1-7.8,6.2-13.4,8.3c-4.7,1.8-11.7,3.4-15,7.3c-2,2.5-1.7,5-2.1,7.9
			c-0.4,2.8-5.7,15.5-7.3,18.7c-2.6,5.4-1.8,12-1.6,17.8c0.2,5.7-0.4,11.5-1.1,17.2c-0.6,4.9-1,9.9-2.4,14.7
			c-0.7,2.4-1.6,4.8-3.1,6.9c-1.5,2.1-4,3.4-5.2,5.6c-3.8,7.1-3.6,15.7-8.3,22.5c-0.9,1.3,0.4,4.2-1.4,5.2s-6.1,3.8-6.5,5.3
			c-0.4,1.5-1.4,5.9-1.4,5.9s1.6-2.2,2.9-5.1c1.3-2.9,10.4-6.9,17.1-7.8c6.6-0.8,21.8-11.2,22.9-11.5s8.5-14.3,11.3-16.5
			c2.8-2.2,3-16.4,3-16.4s-0.1-0.9-0.3-2.4c-3.1-1-8.2-2.4-8.8-4.2c-0.6-1.9-2.7-2.6-4.1-5.6c-1.4-3-3.5-6.1-2.6-9s1.7-5.8,4.4-6.3
			c2.7-0.5,6,1.2,7,2.4c1,1.2,2.6,3.5,4.5,4.2c0.2-0.1,0.5,0,0.7,0.1c4.1,2,7.2-5.8,8-8c0.8-2.2,5.3-9.3,7.5-11.7
			c2.2-2.4,4.2-9.8,4.1-11.1c-0.1-1.3,0.7-6.9,1.6-7.6c0.9-0.7,5.8-1.6,8.6-3.4c2.8-1.9,11.1-1.5,14.1-1c3,0.5,4.9,0.8,5.3,0.6
			c0.3-0.3,2.9,0,2.9,0S98.6,19.4,98.4,16.5z"/>
	</g>
	<path class="st0" d="M2.4,153.5c0,0,11.7,7.4,16.7,16.3"/>
	<path class="st0" d="M105.5,62.1c0,0,2,0.4,2.8-0.6"/>
</g>
</svg>
