<?xml version="1.0" encoding="utf-8"?>
<!-- Generator: Adobe Illustrator 24.3.0, SVG Export Plug-In . SVG Version: 6.00 Build 0)  -->
<svg version="1.1" id="Calque_1" xmlns="http://www.w3.org/2000/svg" xmlns:xlink="http://www.w3.org/1999/xlink" x="0px" y="0px"
	 viewBox="0 0 122.9 161.6" style="enable-background:new 0 0 122.9 161.6;" xml:space="preserve">
<style type="text/css">
	.st0{fill:none;stroke:#76777E;}
	.st1{fill:url(#SVGID_1_);}
</style>
<g>
	<path class="st0" d="M50.8,107.3c0,0-3.7-1.4-4.9-3.9c-1.2-2.4-1.7-8.2-1.7-8.2s-1.3,3.2-4.9,0.9c-3.5-2.4-9.2-6.1-11.5-11.8
		c-2.3-5.7-3.6-7.6-1.8-11.3c1.8-3.7,3.1-6.7,6.1-5.9c3,0.8,7.5,1.6,8,2.7"/>
	<path class="st0" d="M66.4,116c0,0,10.3,4.5,16,6.4c1.2,0.4,2.3,0.7,2.9,0.8c3.7,0.6,5.6-0.7,5.6-0.7l0,0.6
		c0.6-0.1,2.5-1.3,2.5-1.3l0.5,0.6c1-0.4,1.1-1.4,1.1-1.4l0.4,0.7c0.5-0.4,1.3-2,1.3-2l0.4,0.9c1.1-1,0.8-4,0.8-4
		c0.3,0,0.6,1.4,0.6,1.4c0.9-2.6-1-6.4-1.1-8.2c-0.1-1.8,2-2,2.7-3.5c0.7-1.5-0.2-3.2-0.2-3.2s0.6-0.6,1.7-2.6
		c1.1-2,0.5-3.4,0.3-4.9c-0.3-1.6,0.6-2,0.6-2c3.5,0.8,5-0.6,5.9-2.6c0.9-2.1-1.1-5.9-1.5-7.4s0.1-3.2-0.2-5.1s-2.1-4.8-2.1-4.8
		l0.7-1.7l2.5-0.2c-1.1-0.3-2.9-1.8-2.9-1.8s4.1-5.7,4.8-7.4c0.8-1.7-1-3.1-1.7-4.3c-0.8-1.2-2.4-8.7-3.1-10.5
		c-0.7-1.8-3.2-6.7-3.2-6.7"/>
	
		<linearGradient id="SVGID_1_" gradientUnits="userSpaceOnUse" x1="16.023" y1="58.6901" x2="113.6738" y2="58.6901" gradientTransform="matrix(0.9975 -7.114844e-02 7.114844e-02 0.9975 -4.572 5.0179)">
		<stop  offset="0" style="stop-color:#4663FF"/>
		<stop  offset="1" style="stop-color:#17A8D3"/>
	</linearGradient>
	<path class="st1" d="M100.5,40.8c0,0-5-1-6.3-2.5s-2.6-0.4-1.8,4.2c0,0-1.6-2.2-1.9-3.8c0,0-4.5,7-12.7,7.7c-8.1,0.7-9,0.1-9,0.1
		s2.2,9.5-3.4,13.9c0,0-7.7,1.6-11.7,8.3S51.5,84,51.5,84s-4-5-4.4-7.7L47,78.4c0,0-2.9-4.8-3-5.8c0,0-1.5,2.2-1.5,2.8l-2.3-5.7
		c0,0-7.7-3.1-9.5-2.8s-2.1,1.4-2.6,2.2c0,0-4.7,5.1-1.6,11.7s3.6,7.8,5.7,9.7c0,0,0.6,3.2,2,5L32.6,95l1.4,3.5l-1,0.1l1.4,2.4
		l-0.8,0.1l1,1.5l-0.3,0.9c0,0,1.2,7.5,1.1,7.8s-0.8,1.3-0.8,1.3l-0.2-2l-0.4-1l-0.3-1.9l-0.4-1l-0.3-1l-0.6-1.1l0-1.3l-0.6-1.2
		l0-1.1l-1.1-1.1l-0.4-1.5l-0.7-0.9l-0.5-0.8c0,0-0.7,0.5-0.7,0.6c0,0.1-0.2-1.8-0.6-2.5l-0.8,0.6l-1.4-3.1l-0.7,0l-1.3-2.9
		l-1.4-3.1L21.8,87L21,83.6l-1,0.5c0,0-0.3-4.7-0.4-5.2c0-0.5-0.7-0.6-0.7-0.6l-0.1-1.6l-1.2-1l-0.1-1.7c0,0-0.5-1.6-0.7-1.1
		s0.4-1.9,0.4-1.9s-0.7-0.4-1-0.1c0,0,0.9-4.6,0.8-5.8c-0.1-1.2,0-11.5-0.2-12.7c0,0-1.1,0-1.2,0.2c-0.1,0.1,1.3-3.3,1.3-5.1
		s1-6.7,1-6.7s-0.2-3.2,0.5-4.4c0.6-1.2,1.1-2.7,1.1-2.7s-0.4-0.7,0.3-1.4c0.7-0.8,4.5-4.8,4.5-4.8l-0.9,0.1c0,0,3.8-5.2,6.5-6.8
		c2.7-1.7,3.8-4,4.9-4.3c1.1-0.3,2.5-1.8,2.6-2.1s-0.5-0.9-0.5-0.9s6.2-6.1,10.3-4.4c0,0,3.2,1,4.3,0.7s4.1-0.4,4.7-0.3l-2-0.9
		c0,0,4.4-1.7,7.6,0.9c0,0,3.5,0.4,5.8,1.5c2.3,1.1,4.2,0.5,4.2,0.5s4.5-0.4,6,0.5c0,0,2-0.1,4.4,0.5c2.4,0.7,3.7,1.7,4.8,2.5
		l0.4-1.1l4.3,3.5l0-1.3c0,0,4.7,2.1,5.2,2.9c0,0-0.4-1.8-0.4-2.2c0,0,3.5,2.9,6.1,4.5c2.6,1.6,6,4.5,6.5,7c0.5,2.5,0.3,4.6,0.3,4.6
		l0.7-1c0,0,0.3,4.9-0.3,5.8l1.7-3.8C111.3,33.8,114.2,43.2,100.5,40.8z"/>
	<path class="st0" d="M82,122.2c-1.5,1.8-0.8,6-0.8,6s10.7,15.1-3.7,23.6c-8,5-15,3-21.1,0.6s-21.4-8.7-27-17.3s-4.7-8.1-3.3-9.5
		c7.3-7.4,8.6-16.4,8.6-16.4"/>
	<path class="st0" d="M29.1,122.2c0,0-2.4,0.4-4,1.1s-3.4,2.3-4.3,2.8s-3.6,1.9-4.7,3.8l-27.3,23.2"/>
	<path class="st0" d="M92.2,150.1c5.7-9.8-0.5-20.5-3.2-23.1c-2.7-2.6-3.1-3.5-5.4-4.2"/>
	<path class="st0" d="M16.6,129.3c0,0-1.9,8.1,17.6,20.9"/>
	<path class="st0" d="M86.2,123.3c0,0,21.9,9.3,27.1,10.9c5.1,1.7,9.5,6.9,11.3,9.3c1.8,2.4,4.3,6.2,4.8,9.6"/>
</g>
</svg>
